<?xml version="1.0" encoding="iso-8859-1"?>
<!-- Generator: Adobe Illustrator 19.0.0, SVG Export Plug-In . SVG Version: 6.00 Build 0)  -->
<svg version="1.1" id="Capa_1" xmlns="http://www.w3.org/2000/svg" xmlns:xlink="http://www.w3.org/1999/xlink" x="0px" y="0px"
	 viewBox="0 0 512 512" style="enable-background:new 0 0 512 512;" xml:space="preserve">
<g>
	<g>
		<path d="M256,0C115.03,0,0,115.049,0,256c0,140.97,115.049,256,256,256c140.97,0,256-115.049,256-256C512,115.03,396.951,0,256,0z
			 M256,482C131.383,482,30,380.617,30,256S131.383,30,256,30s226,101.383,226,226S380.617,482,256,482z"/>
	</g>
</g>
<g>
	<g>
		<path d="M371.607,245.394L222.896,96.682c-5.857-5.858-15.355-5.858-21.213,0l-42.422,42.422
			c-2.813,2.813-4.394,6.628-4.394,10.607s1.581,7.794,4.394,10.607L254.943,256l-95.682,95.683c-5.858,5.858-5.858,15.355,0,21.213
			l42.422,42.422c5.857,5.857,15.355,5.858,21.213,0l148.711-148.711C377.465,260.749,377.465,251.252,371.607,245.394z
			 M212.289,383.498l-21.208-21.209l95.682-95.683c2.813-2.813,4.394-6.628,4.394-10.606c0-3.978-1.581-7.794-4.394-10.607
			l-95.682-95.682l21.208-21.209L339.787,256L212.289,383.498z"/>
	</g>
</g>
<g>
</g>
<g>
</g>
<g>
</g>
<g>
</g>
<g>
</g>
<g>
</g>
<g>
</g>
<g>
</g>
<g>
</g>
<g>
</g>
<g>
</g>
<g>
</g>
<g>
</g>
<g>
</g>
<g>
</g>
</svg>
